<svg xmlns="http://www.w3.org/2000/svg" width="341" height="256" viewBox="0 0 341 256" fill="none">
<g clip-path="url(#clip0_659_933)">
<path d="M304.39 125.644C304.39 195.036 248.137 243.436 178.745 243.436C109.354 243.436 53.1012 195.036 53.1012 125.644C53.1012 56.2528 109.354 0 178.745 0C248.137 0 304.39 56.2528 304.39 125.644Z" fill="#F3F7FF"/>
<path d="M271.546 58.1104H154.234C148.096 58.1104 143.12 63.0892 143.12 69.2308V231.075C143.12 237.217 148.096 242.196 154.234 242.196H271.546C277.684 242.196 282.66 237.217 282.66 231.075V69.2308C282.66 63.0892 277.684 58.1104 271.546 58.1104Z" fill="#6EADFF"/>
<path d="M266.411 58.1104H149.099C142.961 58.1104 137.985 63.0892 137.985 69.2308V231.075C137.985 237.217 142.961 242.196 149.099 242.196H266.411C272.549 242.196 277.525 237.217 277.525 231.075V69.2308C277.525 63.0892 272.549 58.1104 266.411 58.1104Z" fill="#CDE6FF"/>
<path d="M265.043 68.8144H154.077V221.708H265.043V68.8144Z" fill="#B7DBFF"/>
<path d="M258.301 73.5652H147.334V231.59H258.301V73.5652Z" fill="#FAFBFF"/>
<path d="M225.311 66.052H219.522C219.522 62.9096 216.953 60.3367 213.81 60.3367H192.026C188.886 60.3367 186.314 62.9075 186.314 66.052H180.525C177.385 66.052 174.813 68.6228 174.813 71.7672C174.813 74.9096 177.382 77.4825 180.525 77.4825H225.309C228.45 77.4825 231.021 74.9117 231.021 71.7672C231.021 68.6249 228.452 66.052 225.309 66.052H225.311Z" fill="#252D70"/>
<path d="M234.901 139.61H164.34C163.193 139.61 162.255 138.671 162.255 137.524C162.255 136.376 163.193 135.437 164.34 135.437H234.901C236.048 135.437 236.987 136.376 236.987 137.524C236.987 138.671 236.048 139.61 234.901 139.61Z" fill="#DADFE9"/>
<path d="M234.901 122.873H164.34C163.193 122.873 162.255 121.934 162.255 120.787C162.255 119.639 163.193 118.7 164.34 118.7H234.901C236.048 118.7 236.987 119.639 236.987 120.787C236.987 121.934 236.048 122.873 234.901 122.873Z" fill="#DADFE9"/>
<path d="M204.679 156.347H164.34C163.193 156.347 162.255 155.408 162.255 154.26C162.255 153.113 163.193 152.174 164.34 152.174H204.679C205.826 152.174 206.764 153.113 206.764 154.26C206.764 155.408 205.826 156.347 204.679 156.347Z" fill="#DADFE9"/>
<path opacity="0.24" d="M142.053 255.793C200.287 255.793 247.495 253.703 247.495 251.124C247.495 248.546 200.287 246.456 142.053 246.456C83.8186 246.456 36.6104 248.546 36.6104 251.124C36.6104 253.703 83.8186 255.793 142.053 255.793Z" fill="#C0C4D2"/>
<path d="M208.16 222.642C208.276 222.644 208.392 222.655 208.508 222.661H214.372V224.64C218.284 227.24 220.873 232.105 220.77 237.609C220.667 243.086 217.921 247.787 213.949 250.189V251.897H208.051V251.893C207.902 251.893 207.756 251.897 207.608 251.893C200.492 251.704 194.845 245.003 195 236.926C195.155 228.849 201.046 222.453 208.162 222.642H208.16Z" fill="#2D3C43"/>
<path d="M83.2342 200.009H91.3838C93.1113 200.009 94.5229 198.595 94.5229 196.87C94.5229 195.142 93.1091 193.731 91.3838 193.731H83.2342C81.5067 193.731 80.0951 195.145 80.0951 196.87C80.0951 198.597 81.5089 200.009 83.2342 200.009Z" fill="#C0C4D2"/>
<path d="M107.626 222.642C107.742 222.644 107.858 222.655 107.975 222.661H113.838V224.64C117.751 227.24 120.34 232.105 120.237 237.609C120.133 243.086 117.388 247.787 113.415 250.189V251.897H107.517V251.893C107.369 251.893 107.223 251.897 107.074 251.893C99.9581 251.704 94.3116 245.003 94.4663 236.926C94.6189 228.847 100.512 222.453 107.629 222.642H107.626Z" fill="#2D3C43"/>
<path d="M168.626 221.417C169.393 221.437 170.141 221.538 170.87 221.703C171.789 221.495 172.741 221.392 173.719 221.417C180.835 221.607 186.481 228.308 186.327 236.385C186.174 244.463 180.28 250.857 173.164 250.668C172.397 250.649 169.05 250.694 168.074 250.668C160.958 250.479 155.312 243.778 155.466 235.701C155.619 227.625 161.512 221.228 168.629 221.417H168.626Z" fill="#2D3C43"/>
<path d="M48.5328 234.092L49.8907 239.887C49.8907 241.675 52.5378 242.861 54.3254 242.863L219.406 243.037L229.144 242.867C230.914 242.837 232.532 241.87 233.376 240.336L236.425 234.801C231.885 223.964 224.911 217.821 214.252 216.519L139.352 211.369L90.7098 219.259L48.5307 234.092H48.5328Z" fill="#2D3C43"/>
<path d="M176.865 218.893C191.439 218.509 203.037 222.937 203.037 222.937C203.037 222.937 203.989 212.093 202.423 208.154C202.423 208.154 203.914 203.969 203.523 201.408L172.628 174.331L128.283 174.838C122.338 174.965 119.304 176.302 113.978 178.949C94.0777 188.843 82.0069 197.545 82.0069 197.545C82.0069 197.545 59.6206 201.528 51.8191 207.553C48.6929 210.537 47.0492 212.546 45.8804 220.417C45.8804 220.417 162.291 219.276 176.865 218.891V218.893Z" fill="#D5DAE9"/>
<path d="M156.251 176.535H129.314C124.996 176.535 120.729 177.483 116.829 179.339C104.315 185.297 82.6963 198.619 82.6963 198.619H120.275C122.213 198.619 124.072 197.877 125.486 196.552C133.685 188.857 144.733 181.264 156.253 176.535H156.251Z" fill="#2D3C43"/>
<path d="M130.246 176.536H129.316C124.997 176.536 120.73 177.483 116.831 179.34C113.29 181.026 109.018 183.302 104.715 185.698L107.832 198.617H120.275C122.213 198.617 124.071 197.876 125.485 196.55C127.99 194.2 130.764 191.858 133.736 189.604L130.249 176.534L130.246 176.536Z" fill="#455258"/>
<path d="M129.348 234.759L200.146 234.941C200.146 234.941 202.828 220.732 213.603 220.894C226.142 221.083 226.896 234.799 226.896 234.799H236.432C236.432 234.799 241.296 222.655 237.003 219.252C237.003 219.252 233.581 212.091 232.068 208.155C232.068 208.155 233.507 203.969 233.129 201.408L222.556 193.11C218.063 187.04 200.505 178.145 193.232 176.946C177.923 174.422 165.44 172.767 150.103 180.459C126.415 192.339 118.712 205.254 118.712 205.254C118.712 205.254 109.366 204.584 94.6287 207.555C91.6121 210.54 91.1673 214.055 90.4755 217.23L90.5378 234.844L96.2358 234.827C97.6453 234.823 98.8679 233.858 99.2031 232.49C100.275 228.1 103.848 220.752 111.796 220.518C119.374 220.296 125.455 222.548 126.974 232.707C127.15 233.884 128.164 234.756 129.354 234.759H129.348Z" fill="#D5DAE9"/>
<path d="M232.554 210.505C232.554 210.505 93.7311 208.438 94.627 207.553C109.427 203.215 123.352 198.617 123.352 198.617C123.352 198.617 136.29 185.603 152.964 177.902C164.48 172.582 184.709 173.983 198.275 177.088C207.179 179.127 216.433 184.92 219.465 189.015C219.465 189.015 232.929 200.245 233.072 201.457C233.214 202.669 232.01 208.204 232.01 208.204C232.249 208.823 232.425 209.613 232.556 210.505H232.554Z" fill="#D5DAE9"/>
<path d="M184.759 178.083L182.064 199.203L207.474 199.307C212.701 199.328 215.499 193.202 212.097 189.232C203.763 179.501 190.248 178.353 184.761 178.081L184.759 178.083Z" fill="#2D3C43"/>
<path d="M182.561 177.842C182.561 177.842 162.918 174.765 149.243 182.771C141.353 187.39 134.271 192.326 127.353 198.879L180.051 199.377L182.563 177.842H182.561Z" fill="#2D3C43"/>
<path d="M66.6387 221.417C67.4058 221.437 68.1535 221.538 68.8819 221.703C69.8015 221.493 70.7533 221.392 71.7309 221.417C78.847 221.607 84.4935 228.308 84.3388 236.385C84.1863 244.463 78.2927 250.857 71.1765 250.668C70.4095 250.649 67.062 250.694 66.0865 250.668C58.9704 250.479 53.3239 243.778 53.4786 235.701C53.6311 227.623 59.5247 221.228 66.6409 221.417H66.6387Z" fill="#2D3C43"/>
<path d="M125.329 237.302C125.343 229.223 119.898 222.663 113.167 222.651C106.437 222.64 100.969 229.18 100.955 237.26C100.941 245.34 106.386 251.899 113.116 251.911C119.847 251.923 125.315 245.382 125.329 237.302Z" fill="#37474F"/>
<path d="M113.597 247.339C118.5 247.302 122.44 242.76 122.399 237.193C122.357 231.627 118.348 227.144 113.445 227.181C108.542 227.218 104.601 231.76 104.643 237.326C104.685 242.893 108.693 247.375 113.597 247.339Z" fill="#455258"/>
<path d="M116.47 237.362C116.435 239.219 115.079 240.691 113.442 240.648C111.805 240.605 110.507 239.064 110.544 237.206C110.578 235.349 111.934 233.877 113.571 233.92C115.208 233.963 116.506 235.504 116.47 237.362Z" fill="#37474F"/>
<path d="M225.862 237.302C225.876 229.223 220.432 222.663 213.701 222.651C206.97 222.64 201.503 229.18 201.489 237.26C201.475 245.34 206.919 251.899 213.65 251.911C220.381 251.923 225.848 245.382 225.862 237.302Z" fill="#37474F"/>
<path d="M219.153 204.965L231.286 201.031C231.286 201.031 232.334 204.43 230.063 207.943H218.794L219.151 204.965H219.153Z" fill="#FAFBFF"/>
<path d="M132.655 198.817L128.642 210.505L128.979 234.705L127.823 234.728L127.353 210.393L131.308 198.883L132.655 198.817Z" fill="#C0C4D2"/>
<path d="M49.6043 234.744L91.59 234.845V215.024L45.8808 220.419L45.7025 225.853C45.7025 228.459 46.3707 234.746 49.6065 234.746L49.6043 234.744Z" fill="#D5DAE9"/>
<path d="M84.9172 213.343C87.4225 210.625 90.6089 208.625 94.1498 207.568C95.5292 207.155 96.9085 206.764 97.9356 206.519C101.006 205.784 105.537 206.032 105.537 206.032C105.537 206.032 104.938 215.101 99.4503 215.023C93.9628 214.946 83.3896 215.002 83.3896 215.002L84.9172 213.343Z" fill="#F7FEFB"/>
<path d="M55.9435 212.514C52.8366 208.754 53.5951 208.475 52.0803 207.357C51.2595 207.102 46.8528 210.264 47.0526 214.39C47.0784 214.944 47.7982 215.015 48.6275 214.972C52.3596 214.781 53.29 214.811 53.29 214.811L55.9435 212.514Z" fill="#F7FEFB"/>
<path d="M52.6166 209.097H86.9039C86.9039 212.322 84.2847 214.942 81.0597 214.942H58.4607C55.2357 214.942 52.6166 212.322 52.6166 209.097Z" fill="#37474F"/>
<path d="M63.5912 217.991H73.0322C75.2049 217.991 76.9662 216.23 76.9662 214.058C76.9662 211.886 75.2049 210.125 73.0322 210.125H63.5912C61.4185 210.125 59.6572 211.886 59.6572 214.058C59.6572 216.23 61.4185 217.991 63.5912 217.991Z" fill="#37474F"/>
<path d="M214.149 247.333C219.052 247.296 222.993 242.754 222.951 237.188C222.909 231.622 218.9 227.139 213.997 227.176C209.094 227.213 205.153 231.755 205.195 237.321C205.237 242.887 209.246 247.37 214.149 247.333Z" fill="#455258"/>
<path d="M214.102 240.634C215.739 240.622 217.054 239.106 217.04 237.247C217.026 235.389 215.688 233.893 214.052 233.905C212.415 233.917 211.1 235.434 211.114 237.292C211.128 239.15 212.466 240.646 214.102 240.634Z" fill="#37474F"/>
<path d="M175.518 235.003L181.255 211.044L179.684 199.329H178.599L180.17 210.917L174.463 234.75L175.518 235.003Z" fill="#C0C4D2"/>
<path d="M49.7883 234.743L58.7652 227.799H77.4322L91.5936 234.844L49.7883 234.743Z" fill="#37474F"/>
<path d="M76.9668 223.216H58.635V224.301H76.9668V223.216Z" fill="#C0C4D2"/>
<path d="M173.322 208.533H164.85V204.889H174.407C175.114 204.889 175.685 205.46 175.685 206.167C175.685 207.474 174.626 208.533 173.319 208.533H173.322Z" fill="#C0C4D2"/>
<path d="M207.855 208.533H199.383V204.889H208.94C209.647 204.889 210.219 205.46 210.219 206.167C210.219 207.474 209.16 208.533 207.853 208.533H207.855Z" fill="#C0C4D2"/>
<path d="M139.057 199.433L127.461 199.371C125.734 199.362 126.024 193.084 132.558 193.121L137.901 193.151C139.629 193.159 141.034 194.579 141.023 196.307L141.017 197.497C141.01 198.569 140.13 199.44 139.057 199.435V199.433Z" fill="#C0C4D2"/>
<path d="M220.292 190.456L219.533 209.701L215.651 221.055H214.868L218.525 209.712L219.458 189.015L220.292 190.456Z" fill="#C0C4D2"/>
<path d="M244.687 104.074V106.1H238.864V104.074H244.687ZM239.802 95.1756V106.1H237.169V95.1756H239.802ZM243.937 99.5125V101.471H238.864V99.5125H243.937ZM244.709 95.1756V97.209H238.864V95.1756H244.709Z" fill="#6EADFF"/>
<path d="M233.29 102.402H235.916C235.881 103.162 235.676 103.832 235.301 104.412C234.926 104.993 234.406 105.445 233.74 105.771C233.08 106.091 232.3 106.251 231.399 106.251C230.669 106.251 230.016 106.128 229.441 105.883C228.871 105.638 228.386 105.285 227.985 104.825C227.59 104.365 227.288 103.807 227.078 103.152C226.872 102.497 226.77 101.759 226.77 100.938V100.346C226.77 99.5253 226.877 98.7875 227.093 98.1322C227.313 97.472 227.623 96.9117 228.023 96.4515C228.428 95.9863 228.913 95.6312 229.479 95.3861C230.044 95.141 230.672 95.0184 231.362 95.0184C232.312 95.0184 233.115 95.1885 233.77 95.5286C234.426 95.8688 234.933 96.3365 235.294 96.9317C235.654 97.522 235.866 98.1948 235.931 98.9501H233.305C233.295 98.5399 233.225 98.1973 233.095 97.9221C232.965 97.642 232.76 97.4319 232.48 97.2919C232.2 97.1518 231.827 97.0818 231.362 97.0818C231.037 97.0818 230.754 97.1418 230.514 97.2619C230.274 97.3819 230.074 97.572 229.914 97.8321C229.754 98.0922 229.634 98.4299 229.554 98.845C229.479 99.2552 229.441 99.7504 229.441 100.331V100.938C229.441 101.519 229.476 102.014 229.546 102.424C229.616 102.834 229.729 103.169 229.884 103.43C230.039 103.69 230.239 103.882 230.484 104.007C230.734 104.127 231.039 104.187 231.399 104.187C231.8 104.187 232.137 104.125 232.412 104C232.687 103.87 232.9 103.675 233.05 103.415C233.2 103.149 233.28 102.812 233.29 102.402Z" fill="#6EADFF"/>
<path d="M225.415 95.1756V106.1H222.789L218.925 99.3024V106.1H216.291V95.1756H218.925L222.789 101.974V95.1756H225.415Z" fill="#6EADFF"/>
<path d="M210.446 97.4716L207.783 106.1H204.954L208.968 95.1756H210.761L210.446 97.4716ZM212.652 106.1L209.981 97.4716L209.636 95.1756H211.452L215.489 106.1H212.652ZM212.547 102.026V104.059H206.942V102.026H212.547Z" fill="#6EADFF"/>
<path d="M195.794 95.1756H200.094C200.934 95.1756 201.665 95.3007 202.285 95.5508C202.905 95.8009 203.383 96.1711 203.718 96.6613C204.058 97.1515 204.228 97.7567 204.228 98.477C204.228 99.1023 204.131 99.625 203.935 100.045C203.74 100.465 203.468 100.813 203.118 101.088C202.772 101.358 202.37 101.581 201.91 101.756L201.047 102.244H197.438L197.423 100.21H200.094C200.429 100.21 200.707 100.15 200.927 100.03C201.147 99.9102 201.312 99.7401 201.422 99.52C201.537 99.2949 201.594 99.0273 201.594 98.7171C201.594 98.402 201.537 98.1319 201.422 97.9068C201.307 97.6817 201.137 97.5091 200.912 97.3891C200.692 97.269 200.419 97.209 200.094 97.209H198.428V106.1H195.794V95.1756ZM201.775 106.1L199.359 101.268L202.15 101.253L204.596 105.988V106.1H201.775Z" fill="#6EADFF"/>
<path d="M191.502 95.1756H194.135V102.311C194.135 103.162 193.958 103.882 193.603 104.472C193.248 105.057 192.75 105.5 192.11 105.8C191.469 106.1 190.717 106.25 189.851 106.25C188.996 106.25 188.243 106.1 187.593 105.8C186.947 105.5 186.442 105.057 186.077 104.472C185.717 103.882 185.537 103.162 185.537 102.311V95.1756H188.178V102.311C188.178 102.761 188.243 103.129 188.373 103.414C188.503 103.694 188.693 103.899 188.943 104.029C189.193 104.159 189.496 104.225 189.851 104.225C190.211 104.225 190.514 104.159 190.759 104.029C191.004 103.899 191.189 103.694 191.314 103.414C191.439 103.129 191.502 102.761 191.502 102.311V95.1756Z" fill="#6EADFF"/>
<path d="M181.578 103.196C181.578 103.026 181.553 102.874 181.503 102.739C181.453 102.599 181.361 102.468 181.226 102.348C181.091 102.228 180.895 102.108 180.64 101.988C180.39 101.863 180.06 101.733 179.65 101.598C179.17 101.438 178.707 101.258 178.262 101.058C177.817 100.853 177.419 100.615 177.069 100.345C176.719 100.07 176.441 99.7498 176.236 99.3847C176.031 99.0145 175.928 98.5843 175.928 98.0941C175.928 97.6239 176.033 97.2012 176.243 96.8261C176.454 96.4459 176.746 96.1233 177.121 95.8582C177.501 95.588 177.947 95.383 178.457 95.2429C178.967 95.0978 179.525 95.0253 180.13 95.0253C180.93 95.0253 181.636 95.1654 182.246 95.4455C182.861 95.7206 183.341 96.1133 183.687 96.6235C184.037 97.1287 184.212 97.7265 184.212 98.4168H181.593C181.593 98.1416 181.536 97.899 181.421 97.6889C181.311 97.4789 181.143 97.3138 180.918 97.1937C180.693 97.0737 180.41 97.0137 180.07 97.0137C179.74 97.0137 179.462 97.0637 179.237 97.1637C179.012 97.2638 178.842 97.3988 178.727 97.5689C178.612 97.734 178.554 97.9165 178.554 98.1166C178.554 98.2817 178.599 98.4318 178.689 98.5668C178.785 98.6969 178.917 98.8194 179.087 98.9345C179.262 99.0495 179.472 99.1596 179.717 99.2646C179.968 99.3697 180.248 99.4722 180.558 99.5723C181.138 99.7573 181.653 99.9649 182.103 100.195C182.559 100.42 182.941 100.678 183.251 100.968C183.567 101.253 183.804 101.578 183.964 101.943C184.129 102.308 184.212 102.721 184.212 103.181C184.212 103.672 184.117 104.107 183.927 104.487C183.737 104.867 183.464 105.19 183.109 105.455C182.754 105.715 182.329 105.912 181.833 106.048C181.338 106.183 180.785 106.25 180.175 106.25C179.615 106.25 179.062 106.18 178.517 106.04C177.977 105.895 177.486 105.675 177.046 105.38C176.606 105.08 176.253 104.697 175.988 104.232C175.728 103.762 175.598 103.204 175.598 102.559H178.239C178.239 102.879 178.282 103.149 178.367 103.369C178.452 103.589 178.577 103.767 178.742 103.902C178.907 104.032 179.11 104.127 179.35 104.187C179.59 104.242 179.865 104.269 180.175 104.269C180.51 104.269 180.78 104.222 180.985 104.127C181.191 104.027 181.341 103.897 181.436 103.737C181.531 103.571 181.578 103.391 181.578 103.196Z" fill="#6EADFF"/>
<path d="M174.286 95.1756V106.1H171.66L167.796 99.3024V106.1H165.163V95.1756H167.796L171.66 101.974V95.1756H174.286Z" fill="#6EADFF"/>
<path d="M163.31 95.1757V106.1H160.684V95.1757H163.31Z" fill="#6EADFF"/>
<path d="M100.213 117.704C96.9328 119.763 90.5213 122.798 83.8304 124.119C81.8091 124.521 80.4373 126.363 80.6528 128.379L82.4006 144.229C83.1816 151.35 87.3228 157.694 93.5784 161.362L102.274 166.467L110.927 161.29C117.153 157.566 121.236 151.188 121.963 144.065L123.583 128.148C123.783 126.159 122.426 124.357 120.441 123.928C114.169 122.574 107.558 119.335 104.238 117.566C102.963 116.886 101.421 116.946 100.202 117.714L100.208 117.714L100.213 117.704Z" fill="#6EADFF"/>
<path d="M99.0834 148.197C98.6361 148.198 98.188 148.027 97.8436 147.684L94.0038 143.825C93.3184 143.137 93.3138 142.015 93.9934 141.318C94.6724 140.624 95.7792 140.619 96.4681 141.307L99.0657 143.918L106.93 135.882C107.61 135.188 108.716 135.183 109.405 135.872C110.09 136.56 110.095 137.682 109.415 138.38L100.322 147.67C99.9844 148.015 99.5378 148.191 99.087 148.193L99.0834 148.193L99.0834 148.197Z" fill="white"/>
</g>
<defs>
<clipPath id="clip0_659_933">
<rect width="267.779" height="256" fill="white" transform="translate(36.6104)"/>
</clipPath>
</defs>
</svg>